<svg width="101" height="101" viewBox="0 0 101 101" fill="none" xmlns="http://www.w3.org/2000/svg">
<path d="M95.3902 0.0727539H6.17582C3.12003 0.0727539 0.642822 2.54996 0.642822 5.60575V94.8201C0.642822 97.8759 3.12003 100.353 6.17582 100.353H95.3902C98.446 100.353 100.923 97.8759 100.923 94.8201V5.60575C100.923 2.54996 98.446 0.0727539 95.3902 0.0727539Z" fill="#3D5A98"/>
<path d="M69.8245 100.345V61.5121H82.8563L84.8052 46.379H69.8245V36.7195C69.8245 32.3389 71.0447 29.3478 77.3233 29.3478H85.339V15.7907C81.4575 15.3869 77.5568 15.1946 73.6544 15.2145C62.1139 15.2145 54.1661 22.2473 54.1661 35.2198V46.379H41.1343V61.5121H54.1661V100.345H69.8245Z" fill="white"/>
</svg>
