<svg width="102" height="101" viewBox="0 0 102 101" fill="none" xmlns="http://www.w3.org/2000/svg">
<g clip-path="url(#clip0_190_1338)">
<path d="M77.635 0.0727539H24.3611C11.3807 0.0727539 0.85791 10.5955 0.85791 23.576V76.8499C0.85791 89.8304 11.3807 100.353 24.3611 100.353H77.635C90.6155 100.353 101.138 89.8304 101.138 76.8499V23.576C101.138 10.5955 90.6155 0.0727539 77.635 0.0727539Z" fill="url(#paint0_radial_190_1338)"/>
<path d="M77.635 0.0727539H24.3611C11.3807 0.0727539 0.85791 10.5955 0.85791 23.576V76.8499C0.85791 89.8304 11.3807 100.353 24.3611 100.353H77.635C90.6155 100.353 101.138 89.8304 101.138 76.8499V23.576C101.138 10.5955 90.6155 0.0727539 77.635 0.0727539Z" fill="url(#paint1_radial_190_1338)"/>
<path d="M51.001 11.0413C40.3627 11.0413 39.0273 11.0879 34.8492 11.2779C30.679 11.469 27.8324 12.1291 25.3418 13.0978C22.7651 14.0982 20.5797 15.4367 18.4025 17.6147C16.2233 19.7923 14.8848 21.9777 13.8812 24.5533C12.9098 27.0446 12.2489 29.8924 12.0613 34.0607C11.8745 38.2392 11.8255 39.5749 11.8255 50.2137C11.8255 60.8524 11.8725 62.1834 12.0621 66.3615C12.254 70.5318 12.9141 73.3784 13.882 75.869C14.8833 78.4457 16.2218 80.6311 18.3997 82.8083C20.5765 84.9874 22.7619 86.3291 25.3367 87.3295C27.8292 88.2982 30.6762 88.9583 34.8457 89.1495C39.0242 89.3394 40.3584 89.3861 50.9963 89.3861C61.6358 89.3861 62.9669 89.3394 67.145 89.1495C71.3152 88.9583 74.165 88.2982 76.6575 87.3295C79.2331 86.3291 81.4154 84.9874 83.5917 82.8083C85.7709 80.6311 87.109 78.4457 88.113 75.8701C89.0758 73.3784 89.7371 70.531 89.9329 66.3623C90.1205 62.1842 90.1695 60.8524 90.1695 50.2137C90.1695 39.5749 90.1205 38.24 89.9329 34.0615C89.7371 29.8912 89.0758 27.045 88.113 24.5544C87.109 21.9777 85.7709 19.7923 83.5917 17.6147C81.413 15.436 79.2339 14.0975 76.6552 13.0982C74.158 12.1291 71.3098 11.4686 67.1395 11.2779C62.961 11.0879 61.6307 11.0413 50.9889 11.0413H51.001ZM47.4869 18.1004C48.5301 18.0989 49.6939 18.1004 51.001 18.1004C61.4604 18.1004 62.6998 18.1381 66.83 18.3257C70.6493 18.5004 72.7223 19.1385 74.1031 19.6748C75.9313 20.3846 77.2345 21.2334 78.6048 22.6048C79.9758 23.9759 80.8242 25.2815 81.536 27.1096C82.0723 28.4885 82.7112 30.5615 82.8851 34.3807C83.0727 38.5102 83.1135 39.7504 83.1135 50.2046C83.1135 60.6589 83.0727 61.8994 82.8851 66.0286C82.7104 69.8478 82.0723 71.9208 81.536 73.3001C80.8262 75.1282 79.9758 76.4299 78.6048 77.8001C77.2337 79.1712 75.9321 80.0196 74.1031 80.7298C72.7239 81.2684 70.6493 81.905 66.83 82.0797C62.7005 82.2673 61.4604 82.3081 51.001 82.3081C40.5413 82.3081 39.3015 82.2673 35.1724 82.0797C31.3531 81.9034 29.2802 81.2653 27.8982 80.729C26.0704 80.0189 24.7644 79.1704 23.3934 77.7994C22.0224 76.4283 21.1739 75.1259 20.4621 73.2969C19.9259 71.9177 19.287 69.8447 19.1131 66.0254C18.9254 61.8959 18.8878 60.6557 18.8878 50.1949C18.8878 39.734 18.9254 38.5004 19.1131 34.3709C19.2878 30.5517 19.9259 28.4787 20.4621 27.0979C21.1723 25.2697 22.0224 23.9641 23.3938 22.5931C24.7652 21.2221 26.0704 20.3732 27.8986 19.6618C29.2794 19.1232 31.3531 18.4867 35.1724 18.3112C38.786 18.1478 40.1864 18.0989 47.4869 18.0907V18.1004ZM71.9111 24.6046C69.3159 24.6046 67.2104 26.7081 67.2104 29.3036C67.2104 31.8988 69.3159 34.0043 71.9111 34.0043C74.5062 34.0043 76.6117 31.8988 76.6117 29.3036C76.6117 26.7085 74.5062 24.603 71.9111 24.603V24.6046ZM51.001 30.0969C39.8919 30.0969 30.8846 39.1041 30.8846 50.2137C30.8846 61.3232 39.8919 70.3261 51.001 70.3261C62.1106 70.3261 71.1147 61.3232 71.1147 50.2137C71.1147 39.1045 62.1098 30.0969 51.0002 30.0969H51.001ZM51.001 37.1561C58.2122 37.1561 64.0586 43.0017 64.0586 50.2137C64.0586 57.4248 58.2122 63.2713 51.001 63.2713C43.7899 63.2713 37.9438 57.4248 37.9438 50.2137C37.9438 43.0017 43.7895 37.1561 51.001 37.1561Z" fill="white"/>
</g>
<defs>
<radialGradient id="paint0_radial_190_1338" cx="0" cy="0" r="1" gradientUnits="userSpaceOnUse" gradientTransform="translate(27.4949 108.077) rotate(-90) scale(99.3853 92.4361)">
<stop stop-color="#FFDD55"/>
<stop offset="0.1" stop-color="#FFDD55"/>
<stop offset="0.5" stop-color="#FF543E"/>
<stop offset="1" stop-color="#C837AB"/>
</radialGradient>
<radialGradient id="paint1_radial_190_1338" cx="0" cy="0" r="1" gradientUnits="userSpaceOnUse" gradientTransform="translate(-15.9394 7.29646) rotate(78.681) scale(44.4258 183.124)">
<stop stop-color="#3771C8"/>
<stop offset="0.128" stop-color="#3771C8"/>
<stop offset="1" stop-color="#6600FF" stop-opacity="0"/>
</radialGradient>
<clipPath id="clip0_190_1338">
<rect width="100.28" height="100.28" fill="white" transform="translate(0.857666 0.0727539)"/>
</clipPath>
</defs>
</svg>
