<svg width="99" height="99" viewBox="0 0 99 99" fill="none" xmlns="http://www.w3.org/2000/svg">
<rect x="0.0842285" y="0.0756836" width="98.2747" height="98.2747" rx="8.84473" fill="black"/>
<path d="M65.5882 39.3904C70.3922 42.7821 76.2776 44.7778 82.6338 44.7778V32.6976C81.4308 32.6981 80.231 32.5741 79.0541 32.3276V41.8364C72.6983 41.8364 66.8138 39.841 62.0087 36.4495V61.1019C62.0087 73.4344 51.8862 83.431 39.4005 83.431C34.7418 83.431 30.4115 82.04 26.8145 79.6542C30.92 83.8003 36.6453 86.3721 42.9792 86.3721C55.4659 86.3721 65.5887 76.3756 65.5887 64.0425V39.3904H65.5882ZM70.0044 27.203C67.5491 24.5539 65.937 21.1304 65.5882 17.3454V15.7917H62.1959C63.0499 20.6022 65.9627 24.712 70.0044 27.203ZM34.7117 70.1909C33.3399 68.4147 32.5984 66.2415 32.6018 64.0072C32.6018 58.3669 37.2318 53.7936 42.944 53.7936C44.0084 53.793 45.0665 53.9544 46.0811 54.2721V41.9218C44.8954 41.7614 43.6989 41.6931 42.5029 41.7182V51.331C41.4878 51.0132 40.4291 50.8519 39.3642 50.8527C33.6523 50.8527 29.0226 55.4255 29.0226 61.0666C29.0226 65.0553 31.3367 68.5086 34.7117 70.1909Z" fill="#FF004F"/>
<path d="M62.0081 36.4493C66.8134 39.8408 72.6975 41.8362 79.0535 41.8362V32.3273C75.5056 31.5809 72.3649 29.7499 70.0035 27.203C65.9616 24.7117 63.0493 20.602 62.1954 15.7917H53.2851V64.042C53.2647 69.6671 48.6428 74.2216 42.9429 74.2216C39.5843 74.2216 36.6003 72.6405 34.7106 70.1906C31.3361 68.5086 29.0218 65.0551 29.0218 61.0668C29.0218 55.4263 33.6514 50.853 39.3634 50.853C40.4578 50.853 41.5126 51.0212 42.5021 51.3313V41.7185C30.2355 41.9688 20.3705 51.8678 20.3705 64.0423C20.3705 70.1197 22.827 75.6291 26.8142 79.6547C30.4112 82.04 34.7412 83.4315 39.4002 83.4315C51.8861 83.4315 62.0084 73.4342 62.0084 61.1019L62.0081 36.4493Z" fill="white"/>
<path d="M79.054 32.3273V29.7567C75.8547 29.7613 72.7186 28.8764 70.0041 27.2032C72.4069 29.8012 75.5708 31.5928 79.054 32.3278M62.1956 15.7917C62.1143 15.3321 62.0518 14.8694 62.0084 14.4047V12.8511H49.7053V61.1019C49.6858 66.7264 45.0638 71.2809 39.3637 71.2809C37.7477 71.2833 36.1539 70.91 34.7109 70.1913C36.6005 72.6407 39.5846 74.2215 42.9432 74.2215C48.6428 74.2215 53.2653 69.6675 53.2853 64.0425V15.7919L62.1956 15.7917ZM42.5031 41.7184V38.9814C41.475 38.8427 40.4386 38.7732 39.401 38.7735C26.9137 38.7735 16.7915 48.7706 16.7915 61.1019C16.7915 68.8331 20.7697 75.6466 26.815 79.6544C22.8278 75.6291 20.3713 70.1194 20.3713 64.0422C20.3713 51.868 30.236 41.9688 42.5031 41.7184Z" fill="#00F2EA"/>
</svg>
