<svg width="101" height="101" viewBox="0 0 101 101" fill="none" xmlns="http://www.w3.org/2000/svg">
<rect x="6.67737" y="8.97632" width="86.7579" height="79.2603" fill="white"/>
<path d="M14.5761 0.072998C6.67458 0.072998 0.250366 6.49721 0.250366 14.3988V86.0276C0.250366 93.9291 6.67458 100.353 14.5761 100.353H86.2049C94.1065 100.353 100.531 93.9291 100.531 86.0276V14.3988C100.531 6.49721 94.1065 0.072998 86.2049 0.072998H14.5761ZM81.079 18.8756L57.8444 45.423L85.1753 81.5508H63.7762L47.0329 59.6368L27.8498 81.5508H17.2174L42.0637 53.1455L15.852 18.8756H37.7883L52.9423 38.9092L70.4466 18.8756H81.079ZM72.6179 75.1937L34.5874 24.8969H28.2528L66.7085 75.1937H72.5955H72.6179Z" fill="black"/>
</svg>
