<svg width="99" height="99" viewBox="0 0 99 99" fill="none" xmlns="http://www.w3.org/2000/svg">
<rect x="0.470947" y="0.0756836" width="98.2747" height="98.2747" rx="8.78064" fill="white"/>
<path d="M93.356 27.7342C92.8383 25.8212 91.8286 24.0773 90.4274 22.6759C89.0261 21.2746 87.2822 20.2648 85.3693 19.7471C78.3661 17.8372 50.1807 17.8372 50.1807 17.8372C50.1807 17.8372 21.9939 17.895 14.9907 19.8049C13.0778 20.3227 11.3338 21.3325 9.93257 22.7339C8.53131 24.1353 7.52161 25.8793 7.00403 27.7923C4.88574 40.2356 4.06402 59.1962 7.0622 71.1417C7.57983 73.0547 8.58955 74.7986 9.99081 76.1999C11.3921 77.6013 13.136 78.6111 15.0489 79.1288C22.0521 81.0387 50.2382 81.0387 50.2382 81.0387C50.2382 81.0387 78.4239 81.0387 85.4267 79.1288C87.3397 78.6111 89.0837 77.6013 90.485 76.2C91.8863 74.7987 92.8961 73.0547 93.4138 71.1417C95.648 58.6808 96.3365 39.7318 93.356 27.7342Z" fill="#FF0000"/>
<path d="M41.2097 62.9815L64.5916 49.4384L41.2097 35.8953V62.9815Z" fill="white"/>
</svg>
